# xmcd
#
# Track frame offsets:
# 150
# 11325
# 22623
# 35592
# 47993
# 57367
# 66608
# 75872
# 84159
# 93139
# 101083
# 108772
#
# Disc length: 1584 seconds
#
# Revision: 0
# Processed by: cddbd v1.5.2PL0 Copyright (c) Steve Scherf et al.
# Submitted via: Axialis_AX_CDPlayer 2.6
#
DISCID=81062e0c
DTITLE=Arthur Smith and His Crackerjacks - Mister Guitar
DYEAR=1900
DGENRE=
TTITLE0=Guitar Boogie
TTITLE1=Blue Boogie
TTITLE2=South
TTITLE3=Pickin' The Blues
TTITLE4=The Double Eagle
TTITLE5=Fingers On Fire
TTITLE6=Heartaches
TTITLE7=Little Widow
TTITLE8=Napoleon's Retreat
TTITLE9=Rubber Doll Rag
TTITLE10=Pickin' And Playin' (Ragged But Right)
TTITLE11=Cracker Jack
EXTD=www.arthursmithmusic.com
EXTT0=
EXTT1=
EXTT2=
EXTT3=
EXTT4=
EXTT5=
EXTT6=
EXTT7=
EXTT8=
EXTT9=
EXTT10=
EXTT11=
PLAYORDER=
